<svg id="Layer_1" data-name="Layer 1" xmlns="http://www.w3.org/2000/svg" viewBox="0 0 512 512"><defs><style>.cls-1{fill:none;stroke:#000;stroke-miterlimit:10;stroke-width:24px;}</style></defs><circle class="cls-1" cx="256" cy="256" r="166.22"/><path d="M292.68,252.53C298.62,247,304,231.33,304,223.89c0-11.26-4.74-20.65-9.89-27.52a32.31,32.31,0,0,0-25.94-12.77H209.77V332.18h63.65l.8-.11c12.19-1.65,35.43-9.76,36.15-41.72C310.75,273.44,302.8,259.14,292.68,252.53ZM271.6,207.79s8.81,3.53,8.83,17.82-13.21,17.82-13.21,17.82H233.76V207.79Zm0,100.21h-37.8V267.62h35.29s17.34,4.51,17.34,20.19C286.39,305,274.87,307.26,271.56,308Z"/></svg>