<svg id="Layer_1" data-name="Layer 1" xmlns="http://www.w3.org/2000/svg" viewBox="0 0 512 512"><defs><style>.cls-1{fill:none;stroke:#000;stroke-width:20px;}</style></defs><circle class="cls-1" cx="255.33" cy="130.81" r="56.36"/><circle class="cls-1" cx="255.33" cy="381.19" r="56.36"/><circle class="cls-1" cx="126.1" cy="256" r="56.36"/><circle class="cls-1" cx="385.9" cy="256" r="56.36"/><path d="M253.4,110.11l-20.85,34a2.56,2.56,0,0,0,2.18,3.89h41.7a2.56,2.56,0,0,0,2.18-3.89l-20.85-34A2.56,2.56,0,0,0,253.4,110.11Z"/><path d="M257.76,404.36l20.85-34a2.56,2.56,0,0,0-2.18-3.89h-41.7a2.56,2.56,0,0,0-2.18,3.89l20.85,34A2.56,2.56,0,0,0,257.76,404.36Z"/><path d="M101.73,259.41l34,20.85a2.55,2.55,0,0,0,3.89-2.17V236.38a2.55,2.55,0,0,0-3.89-2.17l-34,20.85A2.55,2.55,0,0,0,101.73,259.41Z"/><path d="M408.09,255.06l-34-20.85a2.55,2.55,0,0,0-3.89,2.17v41.71a2.55,2.55,0,0,0,3.89,2.17l34-20.85A2.55,2.55,0,0,0,408.09,255.06Z"/></svg>