<svg id="Layer_1" data-name="Layer 1" xmlns="http://www.w3.org/2000/svg" viewBox="0 0 512 512"><defs><style>.cls-1{fill:none;stroke:#000;stroke-miterlimit:10;stroke-width:24px;}</style></defs><path d="M179.39,281.28,228.88,222H181.26V202.76h72.9v16.45l-47.08,59.26H254.7v19.26H179.39Z"/><path d="M267.07,297.73V216H303.9a23.75,23.75,0,0,1,10.65,2.42,28.27,28.27,0,0,1,8.46,6.33,29.85,29.85,0,0,1,5.58,8.86,26.43,26.43,0,0,1,2,10A28.5,28.5,0,0,1,327,257.56a25,25,0,0,1-9.79,9.79l18,30.38h-21.3l-15.65-26.35H286v26.35ZM286,254.92h17.26a7.11,7.11,0,0,0,5.76-3.17,13,13,0,0,0,2.41-8.11,11.43,11.43,0,0,0-2.76-8.06,8.11,8.11,0,0,0-6-3H286Z"/><path class="cls-1" d="M78.46,132H321.53A123.75,123.75,0,0,1,445.28,255.79V371.41a0,0,0,0,1,0,0H78.46a0,0,0,0,1,0,0V132A0,0,0,0,1,78.46,132Z"/></svg>