<svg id="Layer_1" data-name="Layer 1" xmlns="http://www.w3.org/2000/svg" viewBox="0 0 512 512"><defs><style>.cls-1{fill:none;stroke:#000;stroke-miterlimit:10;stroke-width:24px;}</style></defs><path d="M221.9,300.83V202.94H266a28.35,28.35,0,0,1,12.75,2.9,33.94,33.94,0,0,1,10.14,7.58A35.78,35.78,0,0,1,295.58,224,31.54,31.54,0,0,1,298,236a34.26,34.26,0,0,1-1.11,8.76,33.72,33.72,0,0,1-3.17,7.92,30.39,30.39,0,0,1-5,6.69,30.08,30.08,0,0,1-6.69,5l21.51,36.4H278l-18.75-31.57H244.51v31.57Zm22.61-51.29h20.67q4,0,6.9-3.79A15.57,15.57,0,0,0,275,236q0-6.06-3.31-9.65t-7.17-3.58h-20Z"/><path class="cls-1" d="M51.12,171.15H345.27A115.61,115.61,0,0,1,460.88,286.76v54.09a0,0,0,0,1,0,0H51.12a0,0,0,0,1,0,0V171.15A0,0,0,0,1,51.12,171.15Z"/></svg>